<?xml version="1.0" encoding="iso-8859-1"?>
<!-- Generator: Adobe Illustrator 19.0.0, SVG Export Plug-In . SVG Version: 6.00 Build 0)  -->
<svg version="1.1" id="Capa_1" xmlns="http://www.w3.org/2000/svg" xmlns:xlink="http://www.w3.org/1999/xlink" x="0px" y="0px"
	 viewBox="0 0 480 480" style="enable-background:new 0 0 480 480;" xml:space="preserve">
<g>
	<g>
		<path d="M240.004,56c-0.001,0-0.003,0-0.004,0h-32V40c0.001-4.417-3.579-7.999-7.996-8c-0.001,0-0.003,0-0.004,0h-64
			c-4.417-0.001-7.999,3.579-8,7.996c0,0.001,0,0.003,0,0.004v16H96c-4.417-0.001-7.999,3.579-8,7.996c0,0.001,0,0.003,0,0.004v88
			c-0.001,4.417,3.579,7.999,7.996,8c0.001,0,0.003,0,0.004,0h144c4.417,0.001,7.999-3.579,8-7.996c0-0.001,0-0.003,0-0.004V64
			C248.001,59.583,244.421,56.001,240.004,56z M232,144H104V72h32c4.417,0.001,7.999-3.579,8-7.996c0-0.001,0-0.003,0-0.004V48h48
			v16c-0.001,4.417,3.579,7.999,7.996,8c0.001,0,0.003,0,0.004,0h32V144z"/>
	</g>
</g>
<g>
	<g>
		<path d="M243.578,240.844c-2.711-1.358-5.956-1.064-8.379,0.758L216,256.001V248c0.001-4.417-3.579-7.999-7.996-8
			c-0.001,0-0.003,0-0.004,0h-17.474c0.948-2.562,1.447-5.268,1.474-8c0.058-13.197-10.594-23.942-23.791-24
			c-5.995-0.026-11.781,2.202-16.209,6.242c-9.666-8.932-24.742-8.336-33.674,1.33c-6.082,6.582-7.957,16.021-4.852,24.428H96
			c-4.417-0.001-7.999,3.579-8,7.996c0,0.001,0,0.003,0,0.004v80c-0.001,4.417,3.579,7.999,7.996,8c0.001,0,0.003,0,0.004,0h112
			c4.417,0.001,7.999-3.579,8-7.996c0-0.001,0-0.003,0-0.004v-8.001l19.199,14.399c3.533,2.652,8.546,1.939,11.199-1.594
			c1.04-1.386,1.603-3.072,1.602-4.804v-80C248,244.97,246.288,242.2,243.578,240.844z M168,224c4.418,0,8,3.582,8,8s-3.582,8-8,8
			s-8-3.582-8-8C160.004,227.584,163.584,224.004,168,224z M136,224c4.418,0,8,3.582,8,8s-3.582,8-8,8s-8-3.582-8-8
			C128.004,227.584,131.584,224.004,136,224z M200,320h-96v-64h96V320z M232,312l-16-12v-24l16-12V312z"/>
	</g>
</g>
<g>
	<g>
		<path d="M384.004,144c-0.001,0-0.003,0-0.004,0H272c-4.417-0.001-7.999,3.579-8,7.996c0,0.001,0,0.003,0,0.004v80
			c-0.001,4.417,3.579,7.999,7.996,8c0.001,0,0.003,0,0.004,0h48v16h-16v16h48v-16h-16v-16h48c4.417,0.001,7.999-3.579,8-7.996
			c0-0.001,0-0.003,0-0.004v-80C392.001,147.583,388.421,144.001,384.004,144z M376,224h-96v-64h96V224z"/>
	</g>
</g>
<g>
	<g>
		<path d="M168,80c-13.255,0-24,10.745-24,24s10.745,24,24,24s24-10.745,24-24C191.986,90.751,181.249,80.014,168,80z M168,112
			c-4.418,0-8-3.582-8-8s3.582-8,8-8s8,3.582,8,8C175.996,108.416,172.416,111.996,168,112z"/>
	</g>
</g>
<g>
	<g>
		<path d="M394,0H86C69.44,0.019,56.019,13.44,56,30v420c0.019,16.56,13.44,29.981,30,30h308c16.56-0.019,29.981-13.44,30-30V30
			C423.981,13.44,410.56,0.019,394,0z M408,450c-0.009,7.728-6.272,13.991-14,14H86c-7.728-0.009-13.991-6.272-14-14v-82h336V450z
			 M408,352H72V30c0.009-7.728,6.272-13.991,14-14h308c7.728,0.009,13.991,6.272,14,14V352z"/>
	</g>
</g>
<g>
	<g>
		<path d="M240,384c-17.673,0-32,14.327-32,32c0,17.673,14.327,32,32,32c17.673,0,32-14.327,32-32
			C271.981,398.335,257.665,384.019,240,384z M240,432c-8.837,0-16-7.163-16-16s7.163-16,16-16s16,7.163,16,16
			C255.99,424.832,248.832,431.99,240,432z"/>
	</g>
</g>
<g>
	<g>
		<rect x="344" y="32" width="16" height="16"/>
	</g>
</g>
<g>
	<g>
		<rect x="376" y="32" width="16" height="16"/>
	</g>
</g>
<g>
</g>
<g>
</g>
<g>
</g>
<g>
</g>
<g>
</g>
<g>
</g>
<g>
</g>
<g>
</g>
<g>
</g>
<g>
</g>
<g>
</g>
<g>
</g>
<g>
</g>
<g>
</g>
<g>
</g>
</svg>
